<mxfile host="app.diagrams.net" agent="Mozilla/5.0 (Windows NT 10.0; Win64; x64; rv:135.0) Gecko/20100101 Firefox/135.0" version="25.0.3">
  <diagram name="Page-1" id="uv4f3wLq82UWm_8eFjms">
    <mxGraphModel dx="2705" dy="2132" grid="1" gridSize="10" guides="1" tooltips="1" connect="1" arrows="1" fold="1" page="1" pageScale="1" pageWidth="827" pageHeight="1169" math="0" shadow="0">
      <root>
        <mxCell id="0" />
        <mxCell id="1" parent="0" />
        <mxCell id="82QKy7BVYgJ4iHRC5Pne-46" value="" style="rounded=1;whiteSpace=wrap;html=1;" vertex="1" parent="1">
          <mxGeometry x="880" y="320" width="260" height="390" as="geometry" />
        </mxCell>
        <mxCell id="82QKy7BVYgJ4iHRC5Pne-61" style="edgeStyle=orthogonalEdgeStyle;rounded=0;orthogonalLoop=1;jettySize=auto;html=1;entryX=0.5;entryY=1;entryDx=0;entryDy=0;" edge="1" parent="1" source="82QKy7BVYgJ4iHRC5Pne-1" target="82QKy7BVYgJ4iHRC5Pne-57">
          <mxGeometry relative="1" as="geometry" />
        </mxCell>
        <mxCell id="82QKy7BVYgJ4iHRC5Pne-1" value="Scene manager" style="rounded=0;whiteSpace=wrap;html=1;fillColor=#d5e8d4;strokeColor=#82b366;" vertex="1" parent="1">
          <mxGeometry x="198" y="460" width="120" height="60" as="geometry" />
        </mxCell>
        <mxCell id="82QKy7BVYgJ4iHRC5Pne-2" value="Scene Menu" style="rounded=0;whiteSpace=wrap;html=1;fillColor=#d5e8d4;strokeColor=#82b366;" vertex="1" parent="1">
          <mxGeometry x="38" y="160" width="120" height="60" as="geometry" />
        </mxCell>
        <mxCell id="82QKy7BVYgJ4iHRC5Pne-3" value="Scene Chose Level" style="rounded=0;whiteSpace=wrap;html=1;fillColor=#d5e8d4;strokeColor=#82b366;" vertex="1" parent="1">
          <mxGeometry x="362" y="160" width="120" height="60" as="geometry" />
        </mxCell>
        <mxCell id="82QKy7BVYgJ4iHRC5Pne-12" style="edgeStyle=orthogonalEdgeStyle;rounded=0;orthogonalLoop=1;jettySize=auto;html=1;entryX=0.5;entryY=1;entryDx=0;entryDy=0;" edge="1" parent="1" source="82QKy7BVYgJ4iHRC5Pne-4" target="82QKy7BVYgJ4iHRC5Pne-5">
          <mxGeometry relative="1" as="geometry" />
        </mxCell>
        <mxCell id="82QKy7BVYgJ4iHRC5Pne-13" style="edgeStyle=orthogonalEdgeStyle;rounded=0;orthogonalLoop=1;jettySize=auto;html=1;entryX=0.5;entryY=1;entryDx=0;entryDy=0;" edge="1" parent="1" source="82QKy7BVYgJ4iHRC5Pne-4" target="82QKy7BVYgJ4iHRC5Pne-2">
          <mxGeometry relative="1" as="geometry">
            <Array as="points">
              <mxPoint x="258" y="240" />
              <mxPoint x="98" y="240" />
            </Array>
          </mxGeometry>
        </mxCell>
        <mxCell id="82QKy7BVYgJ4iHRC5Pne-14" style="edgeStyle=orthogonalEdgeStyle;rounded=0;orthogonalLoop=1;jettySize=auto;html=1;entryX=0.5;entryY=1;entryDx=0;entryDy=0;" edge="1" parent="1" source="82QKy7BVYgJ4iHRC5Pne-4" target="82QKy7BVYgJ4iHRC5Pne-3">
          <mxGeometry relative="1" as="geometry">
            <Array as="points">
              <mxPoint x="258" y="240" />
              <mxPoint x="422" y="240" />
            </Array>
          </mxGeometry>
        </mxCell>
        <mxCell id="82QKy7BVYgJ4iHRC5Pne-15" style="edgeStyle=orthogonalEdgeStyle;rounded=0;orthogonalLoop=1;jettySize=auto;html=1;" edge="1" parent="1" source="82QKy7BVYgJ4iHRC5Pne-4" target="82QKy7BVYgJ4iHRC5Pne-6">
          <mxGeometry relative="1" as="geometry">
            <Array as="points">
              <mxPoint x="258" y="240" />
              <mxPoint x="578" y="240" />
            </Array>
          </mxGeometry>
        </mxCell>
        <mxCell id="82QKy7BVYgJ4iHRC5Pne-4" value="Scene" style="rounded=0;whiteSpace=wrap;html=1;fillColor=#d5e8d4;strokeColor=#82b366;" vertex="1" parent="1">
          <mxGeometry x="198" y="260" width="120" height="60" as="geometry" />
        </mxCell>
        <mxCell id="82QKy7BVYgJ4iHRC5Pne-5" value="Scene Options" style="rounded=0;whiteSpace=wrap;html=1;fillColor=#d5e8d4;strokeColor=#82b366;" vertex="1" parent="1">
          <mxGeometry x="198" y="160" width="120" height="60" as="geometry" />
        </mxCell>
        <mxCell id="82QKy7BVYgJ4iHRC5Pne-26" style="edgeStyle=orthogonalEdgeStyle;rounded=0;orthogonalLoop=1;jettySize=auto;html=1;entryX=0;entryY=0.5;entryDx=0;entryDy=0;" edge="1" parent="1" source="82QKy7BVYgJ4iHRC5Pne-6" target="82QKy7BVYgJ4iHRC5Pne-7">
          <mxGeometry relative="1" as="geometry" />
        </mxCell>
        <mxCell id="82QKy7BVYgJ4iHRC5Pne-27" style="edgeStyle=orthogonalEdgeStyle;rounded=0;orthogonalLoop=1;jettySize=auto;html=1;entryX=0;entryY=0.5;entryDx=0;entryDy=0;" edge="1" parent="1" source="82QKy7BVYgJ4iHRC5Pne-6" target="82QKy7BVYgJ4iHRC5Pne-8">
          <mxGeometry relative="1" as="geometry" />
        </mxCell>
        <mxCell id="82QKy7BVYgJ4iHRC5Pne-6" value="Scene Gameplay" style="rounded=0;whiteSpace=wrap;html=1;fillColor=#d5e8d4;strokeColor=#82b366;" vertex="1" parent="1">
          <mxGeometry x="518" y="160" width="120" height="60" as="geometry" />
        </mxCell>
        <mxCell id="82QKy7BVYgJ4iHRC5Pne-7" value="Level 1" style="rounded=0;whiteSpace=wrap;html=1;fillColor=#d5e8d4;strokeColor=#82b366;" vertex="1" parent="1">
          <mxGeometry x="708" y="120" width="120" height="60" as="geometry" />
        </mxCell>
        <mxCell id="82QKy7BVYgJ4iHRC5Pne-8" value="Level n" style="rounded=0;whiteSpace=wrap;html=1;fillColor=#d5e8d4;strokeColor=#82b366;" vertex="1" parent="1">
          <mxGeometry x="708" y="200" width="120" height="60" as="geometry" />
        </mxCell>
        <mxCell id="82QKy7BVYgJ4iHRC5Pne-10" style="edgeStyle=orthogonalEdgeStyle;rounded=0;orthogonalLoop=1;jettySize=auto;html=1;entryX=0.5;entryY=1;entryDx=0;entryDy=0;" edge="1" parent="1" source="82QKy7BVYgJ4iHRC5Pne-9" target="82QKy7BVYgJ4iHRC5Pne-1">
          <mxGeometry relative="1" as="geometry" />
        </mxCell>
        <mxCell id="82QKy7BVYgJ4iHRC5Pne-9" value="Program" style="rounded=0;whiteSpace=wrap;html=1;fillColor=#f8cecc;strokeColor=#b85450;" vertex="1" parent="1">
          <mxGeometry x="198" y="560" width="120" height="60" as="geometry" />
        </mxCell>
        <mxCell id="82QKy7BVYgJ4iHRC5Pne-20" style="edgeStyle=orthogonalEdgeStyle;rounded=0;orthogonalLoop=1;jettySize=auto;html=1;entryX=0;entryY=0.5;entryDx=0;entryDy=0;" edge="1" parent="1" source="82QKy7BVYgJ4iHRC5Pne-19" target="82QKy7BVYgJ4iHRC5Pne-4">
          <mxGeometry relative="1" as="geometry" />
        </mxCell>
        <mxCell id="82QKy7BVYgJ4iHRC5Pne-19" value="Music" style="rounded=0;whiteSpace=wrap;html=1;fillColor=#f5f5f5;fontColor=#333333;strokeColor=#666666;" vertex="1" parent="1">
          <mxGeometry x="-52" y="350" width="120" height="60" as="geometry" />
        </mxCell>
        <mxCell id="82QKy7BVYgJ4iHRC5Pne-22" style="edgeStyle=orthogonalEdgeStyle;rounded=0;orthogonalLoop=1;jettySize=auto;html=1;entryX=0;entryY=0.5;entryDx=0;entryDy=0;" edge="1" parent="1" source="82QKy7BVYgJ4iHRC5Pne-21" target="82QKy7BVYgJ4iHRC5Pne-4">
          <mxGeometry relative="1" as="geometry" />
        </mxCell>
        <mxCell id="82QKy7BVYgJ4iHRC5Pne-21" value="Water" style="rounded=0;whiteSpace=wrap;html=1;fillColor=#f5f5f5;fontColor=#333333;strokeColor=#666666;" vertex="1" parent="1">
          <mxGeometry x="-52" y="260" width="120" height="60" as="geometry" />
        </mxCell>
        <mxCell id="82QKy7BVYgJ4iHRC5Pne-28" style="edgeStyle=orthogonalEdgeStyle;rounded=0;orthogonalLoop=1;jettySize=auto;html=1;entryX=0.5;entryY=0;entryDx=0;entryDy=0;" edge="1" parent="1" source="82QKy7BVYgJ4iHRC5Pne-25" target="82QKy7BVYgJ4iHRC5Pne-6">
          <mxGeometry relative="1" as="geometry" />
        </mxCell>
        <mxCell id="82QKy7BVYgJ4iHRC5Pne-30" style="edgeStyle=orthogonalEdgeStyle;rounded=0;orthogonalLoop=1;jettySize=auto;html=1;entryX=0.5;entryY=1;entryDx=0;entryDy=0;" edge="1" parent="1" source="82QKy7BVYgJ4iHRC5Pne-25" target="82QKy7BVYgJ4iHRC5Pne-29">
          <mxGeometry relative="1" as="geometry" />
        </mxCell>
        <mxCell id="82QKy7BVYgJ4iHRC5Pne-25" value="&lt;div&gt;Entities&lt;/div&gt;" style="rounded=0;whiteSpace=wrap;html=1;fillColor=#fff2cc;strokeColor=#d6b656;" vertex="1" parent="1">
          <mxGeometry x="518" y="-20" width="120" height="60" as="geometry" />
        </mxCell>
        <mxCell id="82QKy7BVYgJ4iHRC5Pne-39" style="edgeStyle=orthogonalEdgeStyle;rounded=0;orthogonalLoop=1;jettySize=auto;html=1;entryX=0.5;entryY=1;entryDx=0;entryDy=0;" edge="1" parent="1" source="82QKy7BVYgJ4iHRC5Pne-29" target="82QKy7BVYgJ4iHRC5Pne-34">
          <mxGeometry relative="1" as="geometry">
            <Array as="points">
              <mxPoint x="578" y="-150" />
              <mxPoint x="658" y="-150" />
            </Array>
          </mxGeometry>
        </mxCell>
        <mxCell id="82QKy7BVYgJ4iHRC5Pne-40" style="edgeStyle=orthogonalEdgeStyle;rounded=0;orthogonalLoop=1;jettySize=auto;html=1;entryX=0.5;entryY=1;entryDx=0;entryDy=0;" edge="1" parent="1" source="82QKy7BVYgJ4iHRC5Pne-29" target="82QKy7BVYgJ4iHRC5Pne-33">
          <mxGeometry relative="1" as="geometry">
            <Array as="points">
              <mxPoint x="578" y="-150" />
              <mxPoint x="498" y="-150" />
            </Array>
          </mxGeometry>
        </mxCell>
        <mxCell id="82QKy7BVYgJ4iHRC5Pne-41" style="edgeStyle=orthogonalEdgeStyle;rounded=0;orthogonalLoop=1;jettySize=auto;html=1;entryX=0.5;entryY=1;entryDx=0;entryDy=0;" edge="1" parent="1" source="82QKy7BVYgJ4iHRC5Pne-29" target="82QKy7BVYgJ4iHRC5Pne-35">
          <mxGeometry relative="1" as="geometry">
            <Array as="points">
              <mxPoint x="578" y="-150" />
              <mxPoint x="818" y="-150" />
            </Array>
          </mxGeometry>
        </mxCell>
        <mxCell id="82QKy7BVYgJ4iHRC5Pne-42" style="edgeStyle=orthogonalEdgeStyle;rounded=0;orthogonalLoop=1;jettySize=auto;html=1;entryX=0.5;entryY=1;entryDx=0;entryDy=0;" edge="1" parent="1" source="82QKy7BVYgJ4iHRC5Pne-29" target="82QKy7BVYgJ4iHRC5Pne-31">
          <mxGeometry relative="1" as="geometry">
            <Array as="points">
              <mxPoint x="578" y="-150" />
              <mxPoint x="338" y="-150" />
            </Array>
          </mxGeometry>
        </mxCell>
        <mxCell id="82QKy7BVYgJ4iHRC5Pne-79" style="edgeStyle=orthogonalEdgeStyle;rounded=0;orthogonalLoop=1;jettySize=auto;html=1;entryX=1;entryY=0.5;entryDx=0;entryDy=0;" edge="1" parent="1" source="82QKy7BVYgJ4iHRC5Pne-29" target="82QKy7BVYgJ4iHRC5Pne-78">
          <mxGeometry relative="1" as="geometry" />
        </mxCell>
        <mxCell id="82QKy7BVYgJ4iHRC5Pne-29" value="Grid Entities" style="rounded=0;whiteSpace=wrap;html=1;fillColor=#fff2cc;strokeColor=#d6b656;" vertex="1" parent="1">
          <mxGeometry x="518" y="-110" width="120" height="60" as="geometry" />
        </mxCell>
        <mxCell id="82QKy7BVYgJ4iHRC5Pne-31" value="player" style="rounded=0;whiteSpace=wrap;html=1;fillColor=#fff2cc;strokeColor=#d6b656;" vertex="1" parent="1">
          <mxGeometry x="278" y="-260" width="120" height="60" as="geometry" />
        </mxCell>
        <mxCell id="82QKy7BVYgJ4iHRC5Pne-33" value="Enemies" style="rounded=0;whiteSpace=wrap;html=1;fillColor=#fff2cc;strokeColor=#d6b656;" vertex="1" parent="1">
          <mxGeometry x="438" y="-260" width="120" height="60" as="geometry" />
        </mxCell>
        <mxCell id="82QKy7BVYgJ4iHRC5Pne-34" value="Obstacles" style="rounded=0;whiteSpace=wrap;html=1;fillColor=#fff2cc;strokeColor=#d6b656;" vertex="1" parent="1">
          <mxGeometry x="598" y="-260" width="120" height="60" as="geometry" />
        </mxCell>
        <mxCell id="82QKy7BVYgJ4iHRC5Pne-35" value="Projectiles" style="rounded=0;whiteSpace=wrap;html=1;fillColor=#fff2cc;strokeColor=#d6b656;" vertex="1" parent="1">
          <mxGeometry x="758" y="-260" width="120" height="60" as="geometry" />
        </mxCell>
        <mxCell id="82QKy7BVYgJ4iHRC5Pne-43" value="Sprite" style="rounded=0;whiteSpace=wrap;html=1;fillColor=#e1d5e7;strokeColor=#9673a6;" vertex="1" parent="1">
          <mxGeometry x="950" y="360" width="120" height="60" as="geometry" />
        </mxCell>
        <mxCell id="82QKy7BVYgJ4iHRC5Pne-45" value="Sound" style="rounded=0;whiteSpace=wrap;html=1;fillColor=#e1d5e7;strokeColor=#9673a6;" vertex="1" parent="1">
          <mxGeometry x="950" y="440" width="120" height="60" as="geometry" />
        </mxCell>
        <mxCell id="82QKy7BVYgJ4iHRC5Pne-47" value="Options" style="rounded=0;whiteSpace=wrap;html=1;fillColor=#e1d5e7;strokeColor=#9673a6;" vertex="1" parent="1">
          <mxGeometry x="950" y="520" width="120" height="60" as="geometry" />
        </mxCell>
        <mxCell id="82QKy7BVYgJ4iHRC5Pne-48" value="Shader" style="rounded=0;whiteSpace=wrap;html=1;fillColor=#e1d5e7;strokeColor=#9673a6;" vertex="1" parent="1">
          <mxGeometry x="950" y="600" width="120" height="60" as="geometry" />
        </mxCell>
        <mxCell id="82QKy7BVYgJ4iHRC5Pne-50" value="Utils" style="text;html=1;align=center;verticalAlign=middle;whiteSpace=wrap;rounded=0;" vertex="1" parent="1">
          <mxGeometry x="980" y="330" width="60" height="30" as="geometry" />
        </mxCell>
        <mxCell id="82QKy7BVYgJ4iHRC5Pne-51" value="" style="rounded=1;whiteSpace=wrap;html=1;" vertex="1" parent="1">
          <mxGeometry x="550" y="320" width="260" height="390" as="geometry" />
        </mxCell>
        <mxCell id="82QKy7BVYgJ4iHRC5Pne-52" value="GameState" style="rounded=0;whiteSpace=wrap;html=1;fillColor=#f8cecc;strokeColor=#b85450;" vertex="1" parent="1">
          <mxGeometry x="620" y="360" width="120" height="60" as="geometry" />
        </mxCell>
        <mxCell id="82QKy7BVYgJ4iHRC5Pne-53" value="Save" style="rounded=0;whiteSpace=wrap;html=1;fillColor=#f8cecc;strokeColor=#b85450;" vertex="1" parent="1">
          <mxGeometry x="620" y="440" width="120" height="60" as="geometry" />
        </mxCell>
        <mxCell id="82QKy7BVYgJ4iHRC5Pne-54" value="Score" style="rounded=0;whiteSpace=wrap;html=1;fillColor=#f8cecc;strokeColor=#b85450;" vertex="1" parent="1">
          <mxGeometry x="620" y="520" width="120" height="60" as="geometry" />
        </mxCell>
        <mxCell id="82QKy7BVYgJ4iHRC5Pne-55" value="Timers" style="rounded=0;whiteSpace=wrap;html=1;fillColor=#f8cecc;strokeColor=#b85450;" vertex="1" parent="1">
          <mxGeometry x="620" y="600" width="120" height="60" as="geometry" />
        </mxCell>
        <mxCell id="82QKy7BVYgJ4iHRC5Pne-56" value="Globals" style="text;html=1;align=center;verticalAlign=middle;whiteSpace=wrap;rounded=0;" vertex="1" parent="1">
          <mxGeometry x="650" y="330" width="60" height="30" as="geometry" />
        </mxCell>
        <mxCell id="82QKy7BVYgJ4iHRC5Pne-59" style="edgeStyle=orthogonalEdgeStyle;rounded=0;orthogonalLoop=1;jettySize=auto;html=1;entryX=0.5;entryY=1;entryDx=0;entryDy=0;" edge="1" parent="1" source="82QKy7BVYgJ4iHRC5Pne-57" target="82QKy7BVYgJ4iHRC5Pne-4">
          <mxGeometry relative="1" as="geometry" />
        </mxCell>
        <mxCell id="82QKy7BVYgJ4iHRC5Pne-57" value="ServiceLocator" style="rounded=0;whiteSpace=wrap;html=1;fillColor=#f8cecc;strokeColor=#b85450;" vertex="1" parent="1">
          <mxGeometry x="354" y="360" width="120" height="60" as="geometry" />
        </mxCell>
        <mxCell id="82QKy7BVYgJ4iHRC5Pne-63" value="" style="rounded=1;whiteSpace=wrap;html=1;" vertex="1" parent="1">
          <mxGeometry x="880" y="-115" width="260" height="390" as="geometry" />
        </mxCell>
        <mxCell id="82QKy7BVYgJ4iHRC5Pne-64" value="Buttons" style="rounded=0;whiteSpace=wrap;html=1;fillColor=#ffe6cc;strokeColor=#d79b00;" vertex="1" parent="1">
          <mxGeometry x="900" y="-60" width="90" height="60" as="geometry" />
        </mxCell>
        <mxCell id="82QKy7BVYgJ4iHRC5Pne-68" value="UI" style="text;html=1;align=center;verticalAlign=middle;whiteSpace=wrap;rounded=0;" vertex="1" parent="1">
          <mxGeometry x="980" y="-105" width="60" height="25" as="geometry" />
        </mxCell>
        <mxCell id="82QKy7BVYgJ4iHRC5Pne-69" value="CheckBox" style="rounded=0;whiteSpace=wrap;html=1;fillColor=#ffe6cc;strokeColor=#d79b00;" vertex="1" parent="1">
          <mxGeometry x="1030" y="-60" width="90" height="60" as="geometry" />
        </mxCell>
        <mxCell id="82QKy7BVYgJ4iHRC5Pne-70" value="SlidingBar" style="rounded=0;whiteSpace=wrap;html=1;fillColor=#ffe6cc;strokeColor=#d79b00;" vertex="1" parent="1">
          <mxGeometry x="900" y="20" width="90" height="60" as="geometry" />
        </mxCell>
        <mxCell id="82QKy7BVYgJ4iHRC5Pne-71" value="Mouse" style="rounded=0;whiteSpace=wrap;html=1;fillColor=#ffe6cc;strokeColor=#d79b00;" vertex="1" parent="1">
          <mxGeometry x="1030" y="20" width="90" height="60" as="geometry" />
        </mxCell>
        <mxCell id="82QKy7BVYgJ4iHRC5Pne-72" value="Power" style="rounded=0;whiteSpace=wrap;html=1;fillColor=#ffe6cc;strokeColor=#d79b00;" vertex="1" parent="1">
          <mxGeometry x="900" y="100" width="90" height="60" as="geometry" />
        </mxCell>
        <mxCell id="82QKy7BVYgJ4iHRC5Pne-73" value="UI" style="rounded=0;whiteSpace=wrap;html=1;fillColor=#ffe6cc;strokeColor=#d79b00;" vertex="1" parent="1">
          <mxGeometry x="1030" y="100" width="90" height="60" as="geometry" />
        </mxCell>
        <mxCell id="82QKy7BVYgJ4iHRC5Pne-75" value="WinScreen" style="rounded=0;whiteSpace=wrap;html=1;fillColor=#ffe6cc;strokeColor=#d79b00;" vertex="1" parent="1">
          <mxGeometry x="900" y="180" width="90" height="60" as="geometry" />
        </mxCell>
        <mxCell id="82QKy7BVYgJ4iHRC5Pne-76" value="DeathScreen" style="rounded=0;whiteSpace=wrap;html=1;fillColor=#ffe6cc;strokeColor=#d79b00;" vertex="1" parent="1">
          <mxGeometry x="1030" y="180" width="90" height="60" as="geometry" />
        </mxCell>
        <mxCell id="82QKy7BVYgJ4iHRC5Pne-80" style="edgeStyle=orthogonalEdgeStyle;rounded=0;orthogonalLoop=1;jettySize=auto;html=1;entryX=0.5;entryY=0;entryDx=0;entryDy=0;" edge="1" parent="1" source="82QKy7BVYgJ4iHRC5Pne-78" target="82QKy7BVYgJ4iHRC5Pne-6">
          <mxGeometry relative="1" as="geometry">
            <Array as="points">
              <mxPoint x="370" y="100" />
              <mxPoint x="578" y="100" />
            </Array>
          </mxGeometry>
        </mxCell>
        <mxCell id="82QKy7BVYgJ4iHRC5Pne-78" value="Gridmap" style="rounded=0;whiteSpace=wrap;html=1;fillColor=#fff2cc;strokeColor=#d6b656;" vertex="1" parent="1">
          <mxGeometry x="310" y="-110" width="120" height="60" as="geometry" />
        </mxCell>
      </root>
    </mxGraphModel>
  </diagram>
</mxfile>
